<mxfile host="app.diagrams.net" modified="2020-10-29T13:17:19.623Z" agent="5.0 (Windows)" etag="3QZPng5GCdZ6xQZWr-Sg" version="13.8.6" type="github">
  <diagram id="C5RBs43oDa-KdzZeNtuy" name="Page-1">
    <mxGraphModel dx="868" dy="451" grid="1" gridSize="10" guides="1" tooltips="1" connect="1" arrows="1" fold="1" page="1" pageScale="1" pageWidth="827" pageHeight="1169" math="0" shadow="0">
      <root>
        <mxCell id="WIyWlLk6GJQsqaUBKTNV-0" />
        <mxCell id="WIyWlLk6GJQsqaUBKTNV-1" parent="WIyWlLk6GJQsqaUBKTNV-0" />
        <mxCell id="Y97-kvUSINqYxWR_9_tH-6" value="Employee" style="swimlane;fontStyle=1;align=center;verticalAlign=top;childLayout=stackLayout;horizontal=1;startSize=26;horizontalStack=0;resizeParent=1;resizeParentMax=0;resizeLast=0;collapsible=1;marginBottom=0;" vertex="1" parent="WIyWlLk6GJQsqaUBKTNV-1">
          <mxGeometry x="125" y="50" width="230" height="280" as="geometry" />
        </mxCell>
        <mxCell id="Y97-kvUSINqYxWR_9_tH-7" value="-id: int&#xa;-name: String &#xa;-phoneNumber: String &#xa;-address: String &#xa;-dob: Date &#xa;-username: String &#xa;-password: String&#xa;-workTimetable: workTimetable&#xa;&#xa;&#xa;&#xa;" style="text;strokeColor=none;fillColor=none;align=left;verticalAlign=top;spacingLeft=4;spacingRight=4;overflow=hidden;rotatable=0;points=[[0,0.5],[1,0.5]];portConstraint=eastwest;labelBackgroundColor=#ffffff;" vertex="1" parent="Y97-kvUSINqYxWR_9_tH-6">
          <mxGeometry y="26" width="230" height="134" as="geometry" />
        </mxCell>
        <mxCell id="Y97-kvUSINqYxWR_9_tH-8" value="" style="line;strokeWidth=1;fillColor=none;align=left;verticalAlign=middle;spacingTop=-1;spacingLeft=3;spacingRight=3;rotatable=0;labelPosition=right;points=[];portConstraint=eastwest;" vertex="1" parent="Y97-kvUSINqYxWR_9_tH-6">
          <mxGeometry y="160" width="230" height="8" as="geometry" />
        </mxCell>
        <mxCell id="Y97-kvUSINqYxWR_9_tH-9" value="+getter()&#xa;+setter()&#xa;+login(): void&#xa;+viewWorkTime(): void&#xa;+exportWorkTimetable():&#xa;void&#xa;+calculateSalary(): void&#xa;" style="text;strokeColor=none;fillColor=none;align=left;verticalAlign=top;spacingLeft=4;spacingRight=4;overflow=hidden;rotatable=0;points=[[0,0.5],[1,0.5]];portConstraint=eastwest;" vertex="1" parent="Y97-kvUSINqYxWR_9_tH-6">
          <mxGeometry y="168" width="230" height="112" as="geometry" />
        </mxCell>
        <mxCell id="Y97-kvUSINqYxWR_9_tH-10" value="Manager" style="swimlane;fontStyle=1;align=center;verticalAlign=top;childLayout=stackLayout;horizontal=1;startSize=26;horizontalStack=0;resizeParent=1;resizeParentMax=0;resizeLast=0;collapsible=1;marginBottom=0;" vertex="1" parent="WIyWlLk6GJQsqaUBKTNV-1">
          <mxGeometry x="110" y="370" width="260" height="150" as="geometry" />
        </mxCell>
        <mxCell id="Y97-kvUSINqYxWR_9_tH-11" value="Â " style="text;strokeColor=none;fillColor=none;align=left;verticalAlign=top;spacingLeft=4;spacingRight=4;overflow=hidden;rotatable=0;points=[[0,0.5],[1,0.5]];portConstraint=eastwest;" vertex="1" parent="Y97-kvUSINqYxWR_9_tH-10">
          <mxGeometry y="26" width="260" height="24" as="geometry" />
        </mxCell>
        <mxCell id="Y97-kvUSINqYxWR_9_tH-12" value="" style="line;strokeWidth=1;fillColor=none;align=left;verticalAlign=middle;spacingTop=-1;spacingLeft=3;spacingRight=3;rotatable=0;labelPosition=right;points=[];portConstraint=eastwest;" vertex="1" parent="Y97-kvUSINqYxWR_9_tH-10">
          <mxGeometry y="50" width="260" height="8" as="geometry" />
        </mxCell>
        <mxCell id="Y97-kvUSINqYxWR_9_tH-13" value="+addEmployee(Employee e): void&#xa;+removeEmployee(Employee e): void&#xa;+editEmployeeWorkTime(workTime): void&#xa;+exportEmployeeSalary(): void&#xa;" style="text;strokeColor=none;fillColor=none;align=left;verticalAlign=top;spacingLeft=4;spacingRight=4;overflow=hidden;rotatable=0;points=[[0,0.5],[1,0.5]];portConstraint=eastwest;" vertex="1" parent="Y97-kvUSINqYxWR_9_tH-10">
          <mxGeometry y="58" width="260" height="92" as="geometry" />
        </mxCell>
        <mxCell id="Y97-kvUSINqYxWR_9_tH-19" value="" style="endArrow=block;endSize=16;endFill=0;html=1;exitX=0.5;exitY=0;exitDx=0;exitDy=0;entryX=0.492;entryY=1.016;entryDx=0;entryDy=0;entryPerimeter=0;" edge="1" parent="WIyWlLk6GJQsqaUBKTNV-1" source="Y97-kvUSINqYxWR_9_tH-10" target="Y97-kvUSINqYxWR_9_tH-9">
          <mxGeometry width="160" relative="1" as="geometry">
            <mxPoint x="90" y="370" as="sourcePoint" />
            <mxPoint x="60.319999999999936" y="291.472" as="targetPoint" />
          </mxGeometry>
        </mxCell>
        <mxCell id="Y97-kvUSINqYxWR_9_tH-20" value="WorkTimetable" style="swimlane;fontStyle=1;align=center;verticalAlign=top;childLayout=stackLayout;horizontal=1;startSize=26;horizontalStack=0;resizeParent=1;resizeParentMax=0;resizeLast=0;collapsible=1;marginBottom=0;labelBackgroundColor=#ffffff;" vertex="1" parent="WIyWlLk6GJQsqaUBKTNV-1">
          <mxGeometry x="490" y="130" width="160" height="86" as="geometry" />
        </mxCell>
        <mxCell id="Y97-kvUSINqYxWR_9_tH-21" value="+ field: type" style="text;strokeColor=none;fillColor=none;align=left;verticalAlign=top;spacingLeft=4;spacingRight=4;overflow=hidden;rotatable=0;points=[[0,0.5],[1,0.5]];portConstraint=eastwest;" vertex="1" parent="Y97-kvUSINqYxWR_9_tH-20">
          <mxGeometry y="26" width="160" height="26" as="geometry" />
        </mxCell>
        <mxCell id="Y97-kvUSINqYxWR_9_tH-22" value="" style="line;strokeWidth=1;fillColor=none;align=left;verticalAlign=middle;spacingTop=-1;spacingLeft=3;spacingRight=3;rotatable=0;labelPosition=right;points=[];portConstraint=eastwest;" vertex="1" parent="Y97-kvUSINqYxWR_9_tH-20">
          <mxGeometry y="52" width="160" height="8" as="geometry" />
        </mxCell>
        <mxCell id="Y97-kvUSINqYxWR_9_tH-23" value="+ method(type): type" style="text;strokeColor=none;fillColor=none;align=left;verticalAlign=top;spacingLeft=4;spacingRight=4;overflow=hidden;rotatable=0;points=[[0,0.5],[1,0.5]];portConstraint=eastwest;" vertex="1" parent="Y97-kvUSINqYxWR_9_tH-20">
          <mxGeometry y="60" width="160" height="26" as="geometry" />
        </mxCell>
      </root>
    </mxGraphModel>
  </diagram>
</mxfile>
